<mxfile host="app.diagrams.net" modified="2022-10-02T01:08:12.661Z" agent="5.0 (Macintosh; Intel Mac OS X 10_15_7) AppleWebKit/605.1.15 (KHTML, like Gecko) Version/15.2 Safari/605.1.15" etag="AbMs8BRHfyz4X5lGqVLK" version="20.3.7" type="github">
  <diagram id="R2lEEEUBdFMjLlhIrx00" name="Page-1">
    <mxGraphModel dx="1483" dy="994" grid="1" gridSize="10" guides="1" tooltips="1" connect="1" arrows="1" fold="1" page="1" pageScale="1" pageWidth="1700" pageHeight="1100" math="0" shadow="0" extFonts="Permanent Marker^https://fonts.googleapis.com/css?family=Permanent+Marker">
      <root>
        <mxCell id="0" />
        <mxCell id="1" parent="0" />
        <mxCell id="C-vyLk0tnHw3VtMMgP7b-23" value="Customers" style="shape=table;startSize=30;container=1;collapsible=1;childLayout=tableLayout;fixedRows=1;rowLines=0;fontStyle=1;align=center;resizeLast=1;fontFamily=Times New Roman;fontSize=15;strokeColor=default;swimlaneLine=1;rounded=0;sketch=0;" parent="1" vertex="1">
          <mxGeometry x="565" width="270" height="220" as="geometry" />
        </mxCell>
        <mxCell id="C-vyLk0tnHw3VtMMgP7b-24" value="" style="shape=partialRectangle;collapsible=0;dropTarget=0;pointerEvents=0;fillColor=none;points=[[0,0.5],[1,0.5]];portConstraint=eastwest;top=0;left=0;right=0;bottom=1;" parent="C-vyLk0tnHw3VtMMgP7b-23" vertex="1">
          <mxGeometry y="30" width="270" height="30" as="geometry" />
        </mxCell>
        <mxCell id="C-vyLk0tnHw3VtMMgP7b-25" value="PK" style="shape=partialRectangle;overflow=hidden;connectable=0;fillColor=none;top=0;left=0;bottom=0;right=0;fontStyle=1;" parent="C-vyLk0tnHw3VtMMgP7b-24" vertex="1">
          <mxGeometry width="30" height="30" as="geometry">
            <mxRectangle width="30" height="30" as="alternateBounds" />
          </mxGeometry>
        </mxCell>
        <mxCell id="C-vyLk0tnHw3VtMMgP7b-26" value="Customer _ID NOT NULL (Int)" style="shape=partialRectangle;overflow=hidden;connectable=0;fillColor=none;top=0;left=0;bottom=0;right=0;align=left;spacingLeft=6;fontStyle=5;fontFamily=Times New Roman;fontSize=14;" parent="C-vyLk0tnHw3VtMMgP7b-24" vertex="1">
          <mxGeometry x="30" width="240" height="30" as="geometry">
            <mxRectangle width="240" height="30" as="alternateBounds" />
          </mxGeometry>
        </mxCell>
        <mxCell id="C-vyLk0tnHw3VtMMgP7b-27" value="" style="shape=partialRectangle;collapsible=0;dropTarget=0;pointerEvents=0;fillColor=none;points=[[0,0.5],[1,0.5]];portConstraint=eastwest;top=0;left=0;right=0;bottom=0;" parent="C-vyLk0tnHw3VtMMgP7b-23" vertex="1">
          <mxGeometry y="60" width="270" height="30" as="geometry" />
        </mxCell>
        <mxCell id="C-vyLk0tnHw3VtMMgP7b-28" value="" style="shape=partialRectangle;overflow=hidden;connectable=0;fillColor=none;top=0;left=0;bottom=0;right=0;" parent="C-vyLk0tnHw3VtMMgP7b-27" vertex="1">
          <mxGeometry width="30" height="30" as="geometry">
            <mxRectangle width="30" height="30" as="alternateBounds" />
          </mxGeometry>
        </mxCell>
        <mxCell id="C-vyLk0tnHw3VtMMgP7b-29" value="" style="shape=partialRectangle;overflow=hidden;connectable=0;fillColor=none;top=0;left=0;bottom=0;right=0;align=left;spacingLeft=6;" parent="C-vyLk0tnHw3VtMMgP7b-27" vertex="1">
          <mxGeometry x="30" width="240" height="30" as="geometry">
            <mxRectangle width="240" height="30" as="alternateBounds" />
          </mxGeometry>
        </mxCell>
        <mxCell id="BUFZrPtzkMFwAn0xN74M-5" value="FK " style="shape=partialRectangle;overflow=hidden;connectable=0;fillColor=none;top=0;left=0;bottom=0;right=0;fontStyle=1;" vertex="1" parent="1">
          <mxGeometry x="565" y="60" width="30" height="30" as="geometry">
            <mxRectangle width="30" height="30" as="alternateBounds" />
          </mxGeometry>
        </mxCell>
        <mxCell id="BUFZrPtzkMFwAn0xN74M-6" value="Customer _Assitance_ID (Int) " style="shape=partialRectangle;overflow=hidden;connectable=0;fillColor=none;top=0;left=0;bottom=0;right=0;align=left;spacingLeft=6;fontStyle=5;fontFamily=Times New Roman;fontSize=14;" vertex="1" parent="1">
          <mxGeometry x="600" y="60" width="220" height="30" as="geometry">
            <mxRectangle width="220" height="30" as="alternateBounds" />
          </mxGeometry>
        </mxCell>
        <mxCell id="BUFZrPtzkMFwAn0xN74M-53" value="Customer _Name (Text)" style="text;html=1;strokeColor=none;fillColor=none;align=left;verticalAlign=middle;whiteSpace=wrap;rounded=0;fontFamily=Times New Roman;fontStyle=1;fontSize=14;" vertex="1" parent="1">
          <mxGeometry x="605" y="90" width="220" height="30" as="geometry" />
        </mxCell>
        <mxCell id="BUFZrPtzkMFwAn0xN74M-55" value="Customer _License_No. &amp;nbsp;(Varchar 10)" style="text;html=1;strokeColor=none;fillColor=none;align=left;verticalAlign=middle;whiteSpace=wrap;rounded=0;fontFamily=Times New Roman;fontSize=14;fontStyle=1" vertex="1" parent="1">
          <mxGeometry x="605" y="110" width="235" height="30" as="geometry" />
        </mxCell>
        <mxCell id="BUFZrPtzkMFwAn0xN74M-56" value="Customer_Email &amp;nbsp;(Varchar 70)" style="text;html=1;strokeColor=none;fillColor=none;align=left;verticalAlign=middle;whiteSpace=wrap;rounded=0;fontFamily=Times New Roman;fontStyle=1;fontSize=14;" vertex="1" parent="1">
          <mxGeometry x="605" y="130" width="220" height="30" as="geometry" />
        </mxCell>
        <mxCell id="BUFZrPtzkMFwAn0xN74M-58" value="Customer_Mobile_No. &amp;nbsp;(Int)" style="text;html=1;strokeColor=none;fillColor=none;align=left;verticalAlign=middle;whiteSpace=wrap;rounded=0;fontFamily=Times New Roman;fontSize=14;fontStyle=1" vertex="1" parent="1">
          <mxGeometry x="605" y="150" width="220" height="30" as="geometry" />
        </mxCell>
        <mxCell id="BUFZrPtzkMFwAn0xN74M-59" value="Customer_Address &amp;nbsp;(Varchar 100)" style="text;html=1;strokeColor=none;fillColor=none;align=left;verticalAlign=middle;whiteSpace=wrap;rounded=0;fontFamily=Times New Roman;fontStyle=1;fontSize=14;" vertex="1" parent="1">
          <mxGeometry x="605" y="170" width="220" height="30" as="geometry" />
        </mxCell>
        <mxCell id="BUFZrPtzkMFwAn0xN74M-60" value="Insurance_No. &amp;nbsp;(Varchar. 50)" style="text;html=1;strokeColor=none;fillColor=none;align=left;verticalAlign=middle;whiteSpace=wrap;rounded=0;fontFamily=Times New Roman;fontSize=14;fontStyle=1" vertex="1" parent="1">
          <mxGeometry x="605" y="190" width="220" height="30" as="geometry" />
        </mxCell>
        <mxCell id="BUFZrPtzkMFwAn0xN74M-64" value="Booking" style="shape=table;startSize=30;container=1;collapsible=1;childLayout=tableLayout;fixedRows=1;rowLines=0;fontStyle=1;align=center;resizeLast=1;fontFamily=Times New Roman;fontSize=15;" vertex="1" parent="1">
          <mxGeometry x="590" y="290" width="230" height="210" as="geometry" />
        </mxCell>
        <mxCell id="BUFZrPtzkMFwAn0xN74M-65" value="" style="shape=partialRectangle;collapsible=0;dropTarget=0;pointerEvents=0;fillColor=none;points=[[0,0.5],[1,0.5]];portConstraint=eastwest;top=0;left=0;right=0;bottom=1;" vertex="1" parent="BUFZrPtzkMFwAn0xN74M-64">
          <mxGeometry y="30" width="230" height="30" as="geometry" />
        </mxCell>
        <mxCell id="BUFZrPtzkMFwAn0xN74M-66" value="PK" style="shape=partialRectangle;overflow=hidden;connectable=0;fillColor=none;top=0;left=0;bottom=0;right=0;fontStyle=1;" vertex="1" parent="BUFZrPtzkMFwAn0xN74M-65">
          <mxGeometry width="30" height="30" as="geometry">
            <mxRectangle width="30" height="30" as="alternateBounds" />
          </mxGeometry>
        </mxCell>
        <mxCell id="BUFZrPtzkMFwAn0xN74M-67" value="Booking_ID NOT NULL. (Int)" style="shape=partialRectangle;overflow=hidden;connectable=0;fillColor=none;top=0;left=0;bottom=0;right=0;align=left;spacingLeft=6;fontStyle=5;fontFamily=Times New Roman;fontSize=14;" vertex="1" parent="BUFZrPtzkMFwAn0xN74M-65">
          <mxGeometry x="30" width="200" height="30" as="geometry">
            <mxRectangle width="200" height="30" as="alternateBounds" />
          </mxGeometry>
        </mxCell>
        <mxCell id="BUFZrPtzkMFwAn0xN74M-68" value="" style="shape=partialRectangle;collapsible=0;dropTarget=0;pointerEvents=0;fillColor=none;points=[[0,0.5],[1,0.5]];portConstraint=eastwest;top=0;left=0;right=0;bottom=0;" vertex="1" parent="BUFZrPtzkMFwAn0xN74M-64">
          <mxGeometry y="60" width="230" height="30" as="geometry" />
        </mxCell>
        <mxCell id="BUFZrPtzkMFwAn0xN74M-69" value="" style="shape=partialRectangle;overflow=hidden;connectable=0;fillColor=none;top=0;left=0;bottom=0;right=0;" vertex="1" parent="BUFZrPtzkMFwAn0xN74M-68">
          <mxGeometry width="30" height="30" as="geometry">
            <mxRectangle width="30" height="30" as="alternateBounds" />
          </mxGeometry>
        </mxCell>
        <mxCell id="BUFZrPtzkMFwAn0xN74M-70" value="" style="shape=partialRectangle;overflow=hidden;connectable=0;fillColor=none;top=0;left=0;bottom=0;right=0;align=left;spacingLeft=6;" vertex="1" parent="BUFZrPtzkMFwAn0xN74M-68">
          <mxGeometry x="30" width="200" height="30" as="geometry">
            <mxRectangle width="200" height="30" as="alternateBounds" />
          </mxGeometry>
        </mxCell>
        <mxCell id="BUFZrPtzkMFwAn0xN74M-71" value="FK " style="shape=partialRectangle;overflow=hidden;connectable=0;fillColor=none;top=0;left=0;bottom=0;right=0;fontStyle=1;" vertex="1" parent="1">
          <mxGeometry x="590" y="350" width="30" height="30" as="geometry">
            <mxRectangle width="30" height="30" as="alternateBounds" />
          </mxGeometry>
        </mxCell>
        <mxCell id="BUFZrPtzkMFwAn0xN74M-72" value="Customer_ID  (Int)&#xa;Payment_ID. (Int)&#xa;Cart_ID. (Int)&#xa;Order_ID. (Int)" style="shape=partialRectangle;overflow=hidden;connectable=0;fillColor=none;top=0;left=0;bottom=0;right=0;align=left;spacingLeft=6;fontStyle=5;fontFamily=Times New Roman;fontSize=14;" vertex="1" parent="1">
          <mxGeometry x="620" y="350" width="190" height="70" as="geometry">
            <mxRectangle width="220" height="30" as="alternateBounds" />
          </mxGeometry>
        </mxCell>
        <mxCell id="BUFZrPtzkMFwAn0xN74M-111" value="Booking_Source &amp;nbsp;(Text)" style="text;html=1;strokeColor=none;fillColor=none;align=left;verticalAlign=middle;whiteSpace=wrap;rounded=0;fontFamily=Times New Roman;fontStyle=1;fontSize=14;" vertex="1" parent="1">
          <mxGeometry x="625" y="420" width="210" height="30" as="geometry" />
        </mxCell>
        <mxCell id="BUFZrPtzkMFwAn0xN74M-112" value="Booking_date &amp;nbsp;(date)" style="text;html=1;strokeColor=none;fillColor=none;align=left;verticalAlign=middle;whiteSpace=wrap;rounded=0;fontFamily=Times New Roman;fontStyle=1;fontSize=14;" vertex="1" parent="1">
          <mxGeometry x="625" y="440" width="220" height="30" as="geometry" />
        </mxCell>
        <mxCell id="BUFZrPtzkMFwAn0xN74M-113" value="Booking_time. (timestamp)" style="text;html=1;strokeColor=none;fillColor=none;align=left;verticalAlign=middle;whiteSpace=wrap;rounded=0;fontFamily=Times New Roman;fontStyle=1;fontSize=14;" vertex="1" parent="1">
          <mxGeometry x="625" y="460" width="220" height="30" as="geometry" />
        </mxCell>
        <mxCell id="BUFZrPtzkMFwAn0xN74M-145" value="Payment" style="shape=table;startSize=30;container=1;collapsible=1;childLayout=tableLayout;fixedRows=1;rowLines=0;fontStyle=1;align=center;resizeLast=1;fontFamily=Times New Roman;fontSize=15;" vertex="1" parent="1">
          <mxGeometry x="920" y="290" width="230" height="190" as="geometry" />
        </mxCell>
        <mxCell id="BUFZrPtzkMFwAn0xN74M-146" value="" style="shape=partialRectangle;collapsible=0;dropTarget=0;pointerEvents=0;fillColor=none;points=[[0,0.5],[1,0.5]];portConstraint=eastwest;top=0;left=0;right=0;bottom=1;" vertex="1" parent="BUFZrPtzkMFwAn0xN74M-145">
          <mxGeometry y="30" width="230" height="25" as="geometry" />
        </mxCell>
        <mxCell id="BUFZrPtzkMFwAn0xN74M-147" value="PK" style="shape=partialRectangle;overflow=hidden;connectable=0;fillColor=none;top=0;left=0;bottom=0;right=0;fontStyle=1;" vertex="1" parent="BUFZrPtzkMFwAn0xN74M-146">
          <mxGeometry width="30" height="25" as="geometry">
            <mxRectangle width="30" height="25" as="alternateBounds" />
          </mxGeometry>
        </mxCell>
        <mxCell id="BUFZrPtzkMFwAn0xN74M-148" value="Payment_ID  NOT NULL  (Int)" style="shape=partialRectangle;overflow=hidden;connectable=0;fillColor=none;top=0;left=0;bottom=0;right=0;align=left;spacingLeft=6;fontStyle=5;fontFamily=Times New Roman;fontSize=14;" vertex="1" parent="BUFZrPtzkMFwAn0xN74M-146">
          <mxGeometry x="30" width="200" height="25" as="geometry">
            <mxRectangle width="200" height="25" as="alternateBounds" />
          </mxGeometry>
        </mxCell>
        <mxCell id="BUFZrPtzkMFwAn0xN74M-149" value="" style="shape=partialRectangle;collapsible=0;dropTarget=0;pointerEvents=0;fillColor=none;points=[[0,0.5],[1,0.5]];portConstraint=eastwest;top=0;left=0;right=0;bottom=0;" vertex="1" parent="BUFZrPtzkMFwAn0xN74M-145">
          <mxGeometry y="55" width="230" height="30" as="geometry" />
        </mxCell>
        <mxCell id="BUFZrPtzkMFwAn0xN74M-150" value="" style="shape=partialRectangle;overflow=hidden;connectable=0;fillColor=none;top=0;left=0;bottom=0;right=0;" vertex="1" parent="BUFZrPtzkMFwAn0xN74M-149">
          <mxGeometry width="30" height="30" as="geometry">
            <mxRectangle width="30" height="30" as="alternateBounds" />
          </mxGeometry>
        </mxCell>
        <mxCell id="BUFZrPtzkMFwAn0xN74M-151" value="" style="shape=partialRectangle;overflow=hidden;connectable=0;fillColor=none;top=0;left=0;bottom=0;right=0;align=left;spacingLeft=6;" vertex="1" parent="BUFZrPtzkMFwAn0xN74M-149">
          <mxGeometry x="30" width="200" height="30" as="geometry">
            <mxRectangle width="200" height="30" as="alternateBounds" />
          </mxGeometry>
        </mxCell>
        <mxCell id="BUFZrPtzkMFwAn0xN74M-160" value="FK " style="shape=partialRectangle;overflow=hidden;connectable=0;fillColor=none;top=0;left=0;bottom=0;right=0;fontStyle=1;" vertex="1" parent="1">
          <mxGeometry x="920" y="340" width="30" height="30" as="geometry">
            <mxRectangle width="30" height="30" as="alternateBounds" />
          </mxGeometry>
        </mxCell>
        <mxCell id="BUFZrPtzkMFwAn0xN74M-161" value="Discount_ID  (Int)&#xa;Booking_ID. (Int)&#xa;Rate_ID. (Int)" style="shape=partialRectangle;overflow=hidden;connectable=0;fillColor=none;top=0;left=0;bottom=0;right=0;align=left;spacingLeft=6;fontStyle=5;fontFamily=Times New Roman;fontSize=14;" vertex="1" parent="1">
          <mxGeometry x="960" y="340" width="180" height="70" as="geometry">
            <mxRectangle width="220" height="30" as="alternateBounds" />
          </mxGeometry>
        </mxCell>
        <mxCell id="BUFZrPtzkMFwAn0xN74M-162" value="Payment_method &amp;nbsp;(Text)" style="text;html=1;strokeColor=none;fillColor=none;align=left;verticalAlign=middle;whiteSpace=wrap;rounded=0;fontFamily=Times New Roman;fontStyle=1;fontSize=14;" vertex="1" parent="1">
          <mxGeometry x="960" y="400" width="210" height="25" as="geometry" />
        </mxCell>
        <mxCell id="BUFZrPtzkMFwAn0xN74M-163" value="Payment_time. (timestamp)" style="text;html=1;strokeColor=none;fillColor=none;align=left;verticalAlign=middle;whiteSpace=wrap;rounded=0;fontFamily=Times New Roman;fontStyle=1;fontSize=14;" vertex="1" parent="1">
          <mxGeometry x="960" y="425" width="220" height="30" as="geometry" />
        </mxCell>
        <mxCell id="BUFZrPtzkMFwAn0xN74M-164" value="Payment_Amount. (Int)" style="text;html=1;strokeColor=none;fillColor=none;align=left;verticalAlign=middle;whiteSpace=wrap;rounded=0;fontFamily=Times New Roman;fontStyle=1;fontSize=14;" vertex="1" parent="1">
          <mxGeometry x="960" y="450" width="210" height="30" as="geometry" />
        </mxCell>
        <mxCell id="BUFZrPtzkMFwAn0xN74M-165" value="Discount" style="shape=table;startSize=30;container=1;collapsible=1;childLayout=tableLayout;fixedRows=1;rowLines=0;fontStyle=1;align=center;resizeLast=1;fontFamily=Times New Roman;fontSize=15;" vertex="1" parent="1">
          <mxGeometry x="1120" y="520" width="240" height="95" as="geometry" />
        </mxCell>
        <mxCell id="BUFZrPtzkMFwAn0xN74M-166" value="" style="shape=partialRectangle;collapsible=0;dropTarget=0;pointerEvents=0;fillColor=none;points=[[0,0.5],[1,0.5]];portConstraint=eastwest;top=0;left=0;right=0;bottom=1;" vertex="1" parent="BUFZrPtzkMFwAn0xN74M-165">
          <mxGeometry y="30" width="240" height="25" as="geometry" />
        </mxCell>
        <mxCell id="BUFZrPtzkMFwAn0xN74M-167" value="PK" style="shape=partialRectangle;overflow=hidden;connectable=0;fillColor=none;top=0;left=0;bottom=0;right=0;fontStyle=1;" vertex="1" parent="BUFZrPtzkMFwAn0xN74M-166">
          <mxGeometry width="30" height="25" as="geometry">
            <mxRectangle width="30" height="25" as="alternateBounds" />
          </mxGeometry>
        </mxCell>
        <mxCell id="BUFZrPtzkMFwAn0xN74M-168" value="Discount_ID  NOT NULL  (Int)" style="shape=partialRectangle;overflow=hidden;connectable=0;fillColor=none;top=0;left=0;bottom=0;right=0;align=left;spacingLeft=6;fontStyle=5;fontFamily=Times New Roman;fontSize=14;" vertex="1" parent="BUFZrPtzkMFwAn0xN74M-166">
          <mxGeometry x="30" width="210" height="25" as="geometry">
            <mxRectangle width="210" height="25" as="alternateBounds" />
          </mxGeometry>
        </mxCell>
        <mxCell id="BUFZrPtzkMFwAn0xN74M-169" value="" style="shape=partialRectangle;collapsible=0;dropTarget=0;pointerEvents=0;fillColor=none;points=[[0,0.5],[1,0.5]];portConstraint=eastwest;top=0;left=0;right=0;bottom=0;" vertex="1" parent="BUFZrPtzkMFwAn0xN74M-165">
          <mxGeometry y="55" width="240" height="30" as="geometry" />
        </mxCell>
        <mxCell id="BUFZrPtzkMFwAn0xN74M-170" value="" style="shape=partialRectangle;overflow=hidden;connectable=0;fillColor=none;top=0;left=0;bottom=0;right=0;" vertex="1" parent="BUFZrPtzkMFwAn0xN74M-169">
          <mxGeometry width="30" height="30" as="geometry">
            <mxRectangle width="30" height="30" as="alternateBounds" />
          </mxGeometry>
        </mxCell>
        <mxCell id="BUFZrPtzkMFwAn0xN74M-171" value="" style="shape=partialRectangle;overflow=hidden;connectable=0;fillColor=none;top=0;left=0;bottom=0;right=0;align=left;spacingLeft=6;" vertex="1" parent="BUFZrPtzkMFwAn0xN74M-169">
          <mxGeometry x="30" width="210" height="30" as="geometry">
            <mxRectangle width="210" height="30" as="alternateBounds" />
          </mxGeometry>
        </mxCell>
        <mxCell id="BUFZrPtzkMFwAn0xN74M-172" value="Discount_Detail &amp;nbsp;(Text)" style="text;html=1;strokeColor=none;fillColor=none;align=left;verticalAlign=middle;whiteSpace=wrap;rounded=0;fontFamily=Times New Roman;fontStyle=1;fontSize=14;" vertex="1" parent="1">
          <mxGeometry x="1160" y="580" width="150" height="30" as="geometry" />
        </mxCell>
        <mxCell id="BUFZrPtzkMFwAn0xN74M-173" value="Customer_Cart" style="shape=table;startSize=30;container=1;collapsible=1;childLayout=tableLayout;fixedRows=1;rowLines=0;fontStyle=1;align=center;resizeLast=1;fontFamily=Times New Roman;fontSize=15;" vertex="1" parent="1">
          <mxGeometry x="240" y="290" width="250" height="160" as="geometry" />
        </mxCell>
        <mxCell id="BUFZrPtzkMFwAn0xN74M-174" value="" style="shape=partialRectangle;collapsible=0;dropTarget=0;pointerEvents=0;fillColor=none;points=[[0,0.5],[1,0.5]];portConstraint=eastwest;top=0;left=0;right=0;bottom=1;" vertex="1" parent="BUFZrPtzkMFwAn0xN74M-173">
          <mxGeometry y="30" width="250" height="25" as="geometry" />
        </mxCell>
        <mxCell id="BUFZrPtzkMFwAn0xN74M-175" value="PK" style="shape=partialRectangle;overflow=hidden;connectable=0;fillColor=none;top=0;left=0;bottom=0;right=0;fontStyle=1;" vertex="1" parent="BUFZrPtzkMFwAn0xN74M-174">
          <mxGeometry width="30" height="25" as="geometry">
            <mxRectangle width="30" height="25" as="alternateBounds" />
          </mxGeometry>
        </mxCell>
        <mxCell id="BUFZrPtzkMFwAn0xN74M-176" value="Cart_ID  NOT NULL  (Int)" style="shape=partialRectangle;overflow=hidden;connectable=0;fillColor=none;top=0;left=0;bottom=0;right=0;align=left;spacingLeft=6;fontStyle=5;fontFamily=Times New Roman;fontSize=14;" vertex="1" parent="BUFZrPtzkMFwAn0xN74M-174">
          <mxGeometry x="30" width="220" height="25" as="geometry">
            <mxRectangle width="220" height="25" as="alternateBounds" />
          </mxGeometry>
        </mxCell>
        <mxCell id="BUFZrPtzkMFwAn0xN74M-177" value="" style="shape=partialRectangle;collapsible=0;dropTarget=0;pointerEvents=0;fillColor=none;points=[[0,0.5],[1,0.5]];portConstraint=eastwest;top=0;left=0;right=0;bottom=0;" vertex="1" parent="BUFZrPtzkMFwAn0xN74M-173">
          <mxGeometry y="55" width="250" height="30" as="geometry" />
        </mxCell>
        <mxCell id="BUFZrPtzkMFwAn0xN74M-178" value="" style="shape=partialRectangle;overflow=hidden;connectable=0;fillColor=none;top=0;left=0;bottom=0;right=0;" vertex="1" parent="BUFZrPtzkMFwAn0xN74M-177">
          <mxGeometry width="30" height="30" as="geometry">
            <mxRectangle width="30" height="30" as="alternateBounds" />
          </mxGeometry>
        </mxCell>
        <mxCell id="BUFZrPtzkMFwAn0xN74M-179" value="" style="shape=partialRectangle;overflow=hidden;connectable=0;fillColor=none;top=0;left=0;bottom=0;right=0;align=left;spacingLeft=6;" vertex="1" parent="BUFZrPtzkMFwAn0xN74M-177">
          <mxGeometry x="30" width="220" height="30" as="geometry">
            <mxRectangle width="220" height="30" as="alternateBounds" />
          </mxGeometry>
        </mxCell>
        <mxCell id="BUFZrPtzkMFwAn0xN74M-180" value="FK " style="shape=partialRectangle;overflow=hidden;connectable=0;fillColor=none;top=0;left=0;bottom=0;right=0;fontStyle=1;" vertex="1" parent="1">
          <mxGeometry x="240" y="350" width="30" height="30" as="geometry">
            <mxRectangle width="30" height="30" as="alternateBounds" />
          </mxGeometry>
        </mxCell>
        <mxCell id="BUFZrPtzkMFwAn0xN74M-181" value="Customer_ID  (Int)&#xa;Model_ID (Int)&#xa;Pickup_ID (Int)&#xa;Return_ID (Int)" style="shape=partialRectangle;overflow=hidden;connectable=0;fillColor=none;top=0;left=0;bottom=0;right=0;align=left;spacingLeft=6;fontStyle=5;fontFamily=Times New Roman;fontSize=14;" vertex="1" parent="1">
          <mxGeometry x="270" y="350" width="190" height="70" as="geometry">
            <mxRectangle width="220" height="30" as="alternateBounds" />
          </mxGeometry>
        </mxCell>
        <mxCell id="BUFZrPtzkMFwAn0xN74M-182" value="Car_Usage_detail &amp;nbsp;(Text)" style="text;html=1;strokeColor=none;fillColor=none;align=left;verticalAlign=middle;whiteSpace=wrap;rounded=0;fontFamily=Times New Roman;fontStyle=1;fontSize=14;" vertex="1" parent="1">
          <mxGeometry x="280" y="420" width="210" height="30" as="geometry" />
        </mxCell>
        <mxCell id="BUFZrPtzkMFwAn0xN74M-183" value="Delivery " style="shape=table;startSize=30;container=1;collapsible=1;childLayout=tableLayout;fixedRows=1;rowLines=0;fontStyle=1;align=center;resizeLast=1;fontFamily=Times New Roman;fontSize=15;" vertex="1" parent="1">
          <mxGeometry x="40" y="500" width="230" height="190" as="geometry" />
        </mxCell>
        <mxCell id="BUFZrPtzkMFwAn0xN74M-184" value="" style="shape=partialRectangle;collapsible=0;dropTarget=0;pointerEvents=0;fillColor=none;points=[[0,0.5],[1,0.5]];portConstraint=eastwest;top=0;left=0;right=0;bottom=1;verticalAlign=middle;" vertex="1" parent="BUFZrPtzkMFwAn0xN74M-183">
          <mxGeometry y="30" width="230" height="40" as="geometry" />
        </mxCell>
        <mxCell id="BUFZrPtzkMFwAn0xN74M-185" value="PK" style="shape=partialRectangle;overflow=hidden;connectable=0;fillColor=none;top=0;left=0;bottom=0;right=0;fontStyle=1;" vertex="1" parent="BUFZrPtzkMFwAn0xN74M-184">
          <mxGeometry width="30" height="40" as="geometry">
            <mxRectangle width="30" height="40" as="alternateBounds" />
          </mxGeometry>
        </mxCell>
        <mxCell id="BUFZrPtzkMFwAn0xN74M-186" value="Pickup_ID NOT NULL. (Int)&#xa;Return_ID NOT NULL. (Int)&#xa;&#xa;" style="shape=partialRectangle;overflow=hidden;connectable=0;fillColor=none;top=0;left=0;bottom=0;right=0;align=left;spacingLeft=6;fontStyle=5;fontFamily=Times New Roman;fontSize=14;" vertex="1" parent="BUFZrPtzkMFwAn0xN74M-184">
          <mxGeometry x="30" width="200" height="40" as="geometry">
            <mxRectangle width="200" height="40" as="alternateBounds" />
          </mxGeometry>
        </mxCell>
        <mxCell id="BUFZrPtzkMFwAn0xN74M-187" value="" style="shape=partialRectangle;collapsible=0;dropTarget=0;pointerEvents=0;fillColor=none;points=[[0,0.5],[1,0.5]];portConstraint=eastwest;top=0;left=0;right=0;bottom=0;" vertex="1" parent="BUFZrPtzkMFwAn0xN74M-183">
          <mxGeometry y="70" width="230" height="30" as="geometry" />
        </mxCell>
        <mxCell id="BUFZrPtzkMFwAn0xN74M-188" value="" style="shape=partialRectangle;overflow=hidden;connectable=0;fillColor=none;top=0;left=0;bottom=0;right=0;" vertex="1" parent="BUFZrPtzkMFwAn0xN74M-187">
          <mxGeometry width="30" height="30" as="geometry">
            <mxRectangle width="30" height="30" as="alternateBounds" />
          </mxGeometry>
        </mxCell>
        <mxCell id="BUFZrPtzkMFwAn0xN74M-189" value="" style="shape=partialRectangle;overflow=hidden;connectable=0;fillColor=none;top=0;left=0;bottom=0;right=0;align=left;spacingLeft=6;" vertex="1" parent="BUFZrPtzkMFwAn0xN74M-187">
          <mxGeometry x="30" width="200" height="30" as="geometry">
            <mxRectangle width="200" height="30" as="alternateBounds" />
          </mxGeometry>
        </mxCell>
        <mxCell id="BUFZrPtzkMFwAn0xN74M-190" value="FK " style="shape=partialRectangle;overflow=hidden;connectable=0;fillColor=none;top=0;left=0;bottom=0;right=0;fontStyle=1;" vertex="1" parent="1">
          <mxGeometry x="40" y="570" width="30" height="30" as="geometry">
            <mxRectangle width="30" height="30" as="alternateBounds" />
          </mxGeometry>
        </mxCell>
        <mxCell id="BUFZrPtzkMFwAn0xN74M-191" value="Customer_ID  (Int)" style="shape=partialRectangle;overflow=hidden;connectable=0;fillColor=none;top=0;left=0;bottom=0;right=0;align=left;spacingLeft=6;fontStyle=5;fontFamily=Times New Roman;fontSize=14;" vertex="1" parent="1">
          <mxGeometry x="70" y="575" width="190" height="20" as="geometry">
            <mxRectangle width="220" height="30" as="alternateBounds" />
          </mxGeometry>
        </mxCell>
        <mxCell id="BUFZrPtzkMFwAn0xN74M-192" value="Pickup_date &amp;nbsp;(date)" style="text;html=1;strokeColor=none;fillColor=none;align=left;verticalAlign=middle;whiteSpace=wrap;rounded=0;fontFamily=Times New Roman;fontStyle=1;fontSize=14;" vertex="1" parent="1">
          <mxGeometry x="80" y="600" width="180" height="30" as="geometry" />
        </mxCell>
        <mxCell id="BUFZrPtzkMFwAn0xN74M-193" value="Pickup_time. (timestamp)" style="text;html=1;strokeColor=none;fillColor=none;align=left;verticalAlign=middle;whiteSpace=wrap;rounded=0;fontFamily=Times New Roman;fontStyle=1;fontSize=14;" vertex="1" parent="1">
          <mxGeometry x="80" y="620" width="180" height="30" as="geometry" />
        </mxCell>
        <mxCell id="BUFZrPtzkMFwAn0xN74M-194" value="Return_date &amp;nbsp;(date)" style="text;html=1;strokeColor=none;fillColor=none;align=left;verticalAlign=middle;whiteSpace=wrap;rounded=0;fontFamily=Times New Roman;fontStyle=1;fontSize=14;" vertex="1" parent="1">
          <mxGeometry x="80" y="640" width="220" height="30" as="geometry" />
        </mxCell>
        <mxCell id="BUFZrPtzkMFwAn0xN74M-195" value="Return_time. (timestamp)" style="text;html=1;strokeColor=none;fillColor=none;align=left;verticalAlign=middle;whiteSpace=wrap;rounded=0;fontFamily=Times New Roman;fontStyle=1;fontSize=14;" vertex="1" parent="1">
          <mxGeometry x="80" y="660" width="220" height="30" as="geometry" />
        </mxCell>
        <mxCell id="BUFZrPtzkMFwAn0xN74M-196" value="Online_Booking" style="shape=table;startSize=30;container=1;collapsible=1;childLayout=tableLayout;fixedRows=1;rowLines=0;fontStyle=1;align=center;resizeLast=1;fontFamily=Times New Roman;fontSize=15;" vertex="1" parent="1">
          <mxGeometry x="420" y="600" width="260" height="160" as="geometry" />
        </mxCell>
        <mxCell id="BUFZrPtzkMFwAn0xN74M-197" value="" style="shape=partialRectangle;collapsible=0;dropTarget=0;pointerEvents=0;fillColor=none;points=[[0,0.5],[1,0.5]];portConstraint=eastwest;top=0;left=0;right=0;bottom=1;" vertex="1" parent="BUFZrPtzkMFwAn0xN74M-196">
          <mxGeometry y="30" width="260" height="25" as="geometry" />
        </mxCell>
        <mxCell id="BUFZrPtzkMFwAn0xN74M-198" value="PK" style="shape=partialRectangle;overflow=hidden;connectable=0;fillColor=none;top=0;left=0;bottom=0;right=0;fontStyle=1;" vertex="1" parent="BUFZrPtzkMFwAn0xN74M-197">
          <mxGeometry width="30" height="25" as="geometry">
            <mxRectangle width="30" height="25" as="alternateBounds" />
          </mxGeometry>
        </mxCell>
        <mxCell id="BUFZrPtzkMFwAn0xN74M-199" value="Order_ID  NOT NULL  (Int)" style="shape=partialRectangle;overflow=hidden;connectable=0;fillColor=none;top=0;left=0;bottom=0;right=0;align=left;spacingLeft=6;fontStyle=5;fontFamily=Times New Roman;fontSize=14;" vertex="1" parent="BUFZrPtzkMFwAn0xN74M-197">
          <mxGeometry x="30" width="230" height="25" as="geometry">
            <mxRectangle width="230" height="25" as="alternateBounds" />
          </mxGeometry>
        </mxCell>
        <mxCell id="BUFZrPtzkMFwAn0xN74M-200" value="" style="shape=partialRectangle;collapsible=0;dropTarget=0;pointerEvents=0;fillColor=none;points=[[0,0.5],[1,0.5]];portConstraint=eastwest;top=0;left=0;right=0;bottom=0;" vertex="1" parent="BUFZrPtzkMFwAn0xN74M-196">
          <mxGeometry y="55" width="260" height="30" as="geometry" />
        </mxCell>
        <mxCell id="BUFZrPtzkMFwAn0xN74M-201" value="" style="shape=partialRectangle;overflow=hidden;connectable=0;fillColor=none;top=0;left=0;bottom=0;right=0;" vertex="1" parent="BUFZrPtzkMFwAn0xN74M-200">
          <mxGeometry width="30" height="30" as="geometry">
            <mxRectangle width="30" height="30" as="alternateBounds" />
          </mxGeometry>
        </mxCell>
        <mxCell id="BUFZrPtzkMFwAn0xN74M-202" value="" style="shape=partialRectangle;overflow=hidden;connectable=0;fillColor=none;top=0;left=0;bottom=0;right=0;align=left;spacingLeft=6;" vertex="1" parent="BUFZrPtzkMFwAn0xN74M-200">
          <mxGeometry x="30" width="230" height="30" as="geometry">
            <mxRectangle width="230" height="30" as="alternateBounds" />
          </mxGeometry>
        </mxCell>
        <mxCell id="BUFZrPtzkMFwAn0xN74M-203" value="D" style="ellipse;whiteSpace=wrap;html=1;aspect=fixed;rounded=0;sketch=0;strokeColor=default;fontFamily=Times New Roman;fontSize=14;fillColor=default;" vertex="1" parent="1">
          <mxGeometry x="680" y="530" width="40" height="40" as="geometry" />
        </mxCell>
        <mxCell id="BUFZrPtzkMFwAn0xN74M-204" value="Inperson_Booking" style="shape=table;startSize=30;container=1;collapsible=1;childLayout=tableLayout;fixedRows=1;rowLines=0;fontStyle=1;align=center;resizeLast=1;fontFamily=Times New Roman;fontSize=15;" vertex="1" parent="1">
          <mxGeometry x="720" y="600" width="300" height="160" as="geometry" />
        </mxCell>
        <mxCell id="BUFZrPtzkMFwAn0xN74M-205" value="" style="shape=partialRectangle;collapsible=0;dropTarget=0;pointerEvents=0;fillColor=none;points=[[0,0.5],[1,0.5]];portConstraint=eastwest;top=0;left=0;right=0;bottom=1;" vertex="1" parent="BUFZrPtzkMFwAn0xN74M-204">
          <mxGeometry y="30" width="300" height="40" as="geometry" />
        </mxCell>
        <mxCell id="BUFZrPtzkMFwAn0xN74M-206" value="PK" style="shape=partialRectangle;overflow=hidden;connectable=0;fillColor=none;top=0;left=0;bottom=0;right=0;fontStyle=1;" vertex="1" parent="BUFZrPtzkMFwAn0xN74M-205">
          <mxGeometry width="30" height="40" as="geometry">
            <mxRectangle width="30" height="40" as="alternateBounds" />
          </mxGeometry>
        </mxCell>
        <mxCell id="BUFZrPtzkMFwAn0xN74M-207" value="Car_rental_shop_ID  NOT NULL  (Int)&#xa;Customer_assitance_ID  NOT NULL  (Int)" style="shape=partialRectangle;overflow=hidden;connectable=0;fillColor=none;top=0;left=0;bottom=0;right=0;align=left;spacingLeft=6;fontStyle=5;fontFamily=Times New Roman;fontSize=14;" vertex="1" parent="BUFZrPtzkMFwAn0xN74M-205">
          <mxGeometry x="30" width="270" height="40" as="geometry">
            <mxRectangle width="270" height="40" as="alternateBounds" />
          </mxGeometry>
        </mxCell>
        <mxCell id="BUFZrPtzkMFwAn0xN74M-208" value="" style="shape=partialRectangle;collapsible=0;dropTarget=0;pointerEvents=0;fillColor=none;points=[[0,0.5],[1,0.5]];portConstraint=eastwest;top=0;left=0;right=0;bottom=0;" vertex="1" parent="BUFZrPtzkMFwAn0xN74M-204">
          <mxGeometry y="70" width="300" height="30" as="geometry" />
        </mxCell>
        <mxCell id="BUFZrPtzkMFwAn0xN74M-209" value="" style="shape=partialRectangle;overflow=hidden;connectable=0;fillColor=none;top=0;left=0;bottom=0;right=0;" vertex="1" parent="BUFZrPtzkMFwAn0xN74M-208">
          <mxGeometry width="30" height="30" as="geometry">
            <mxRectangle width="30" height="30" as="alternateBounds" />
          </mxGeometry>
        </mxCell>
        <mxCell id="BUFZrPtzkMFwAn0xN74M-210" value="" style="shape=partialRectangle;overflow=hidden;connectable=0;fillColor=none;top=0;left=0;bottom=0;right=0;align=left;spacingLeft=6;" vertex="1" parent="BUFZrPtzkMFwAn0xN74M-208">
          <mxGeometry x="30" width="270" height="30" as="geometry">
            <mxRectangle width="270" height="30" as="alternateBounds" />
          </mxGeometry>
        </mxCell>
        <mxCell id="BUFZrPtzkMFwAn0xN74M-211" value="" style="endArrow=none;html=1;rounded=0;fontFamily=Times New Roman;fontSize=14;exitX=0.5;exitY=0;exitDx=0;exitDy=0;entryX=0;entryY=1;entryDx=0;entryDy=0;" edge="1" parent="1" source="BUFZrPtzkMFwAn0xN74M-196" target="BUFZrPtzkMFwAn0xN74M-203">
          <mxGeometry width="50" height="50" relative="1" as="geometry">
            <mxPoint x="650" y="500" as="sourcePoint" />
            <mxPoint x="700" y="450" as="targetPoint" />
            <Array as="points" />
          </mxGeometry>
        </mxCell>
        <mxCell id="BUFZrPtzkMFwAn0xN74M-212" value="" style="endArrow=none;html=1;rounded=0;fontFamily=Times New Roman;fontSize=14;entryX=1;entryY=1;entryDx=0;entryDy=0;exitX=0.5;exitY=0;exitDx=0;exitDy=0;" edge="1" parent="1" source="BUFZrPtzkMFwAn0xN74M-204" target="BUFZrPtzkMFwAn0xN74M-203">
          <mxGeometry width="50" height="50" relative="1" as="geometry">
            <mxPoint x="860" y="610" as="sourcePoint" />
            <mxPoint x="690" y="560" as="targetPoint" />
            <Array as="points" />
          </mxGeometry>
        </mxCell>
        <mxCell id="BUFZrPtzkMFwAn0xN74M-215" value="Customer_ID  (Int)&#xa;Model_ID (Int)" style="shape=partialRectangle;overflow=hidden;connectable=0;fillColor=none;top=0;left=0;bottom=0;right=0;align=left;spacingLeft=6;fontStyle=5;fontFamily=Times New Roman;fontSize=14;" vertex="1" parent="1">
          <mxGeometry x="455" y="655" width="190" height="40" as="geometry">
            <mxRectangle width="220" height="30" as="alternateBounds" />
          </mxGeometry>
        </mxCell>
        <mxCell id="BUFZrPtzkMFwAn0xN74M-216" value="FK " style="shape=partialRectangle;overflow=hidden;connectable=0;fillColor=none;top=0;left=0;bottom=0;right=0;fontStyle=1;" vertex="1" parent="1">
          <mxGeometry x="420" y="655" width="30" height="30" as="geometry">
            <mxRectangle width="30" height="30" as="alternateBounds" />
          </mxGeometry>
        </mxCell>
        <mxCell id="BUFZrPtzkMFwAn0xN74M-217" value="Website_Detail. (Text)" style="text;html=1;strokeColor=none;fillColor=none;align=left;verticalAlign=middle;whiteSpace=wrap;rounded=0;fontFamily=Times New Roman;fontStyle=1;fontSize=14;" vertex="1" parent="1">
          <mxGeometry x="470" y="695" width="210" height="30" as="geometry" />
        </mxCell>
        <mxCell id="BUFZrPtzkMFwAn0xN74M-218" value="FK " style="shape=partialRectangle;overflow=hidden;connectable=0;fillColor=none;top=0;left=0;bottom=0;right=0;fontStyle=1;" vertex="1" parent="1">
          <mxGeometry x="720" y="672.5" width="30" height="30" as="geometry">
            <mxRectangle width="30" height="30" as="alternateBounds" />
          </mxGeometry>
        </mxCell>
        <mxCell id="BUFZrPtzkMFwAn0xN74M-219" value="Customer_ID  (Int)&#xa;Model_ID (Int)" style="shape=partialRectangle;overflow=hidden;connectable=0;fillColor=none;top=0;left=0;bottom=0;right=0;align=left;spacingLeft=6;fontStyle=5;fontFamily=Times New Roman;fontSize=14;" vertex="1" parent="1">
          <mxGeometry x="750" y="670" width="190" height="40" as="geometry">
            <mxRectangle width="220" height="30" as="alternateBounds" />
          </mxGeometry>
        </mxCell>
        <mxCell id="BUFZrPtzkMFwAn0xN74M-220" value="Customer_assitance_Name (Text)" style="text;html=1;strokeColor=none;fillColor=none;align=left;verticalAlign=middle;whiteSpace=wrap;rounded=0;fontFamily=Times New Roman;fontStyle=1;fontSize=14;" vertex="1" parent="1">
          <mxGeometry x="760" y="710" width="210" height="30" as="geometry" />
        </mxCell>
        <mxCell id="BUFZrPtzkMFwAn0xN74M-221" value="Customer_assitance_Mobile_No. (Int)" style="text;html=1;strokeColor=none;fillColor=none;align=left;verticalAlign=middle;whiteSpace=wrap;rounded=0;fontFamily=Times New Roman;fontStyle=1;fontSize=14;" vertex="1" parent="1">
          <mxGeometry x="760" y="730" width="260" height="30" as="geometry" />
        </mxCell>
        <mxCell id="BUFZrPtzkMFwAn0xN74M-222" value="Car_Model" style="shape=table;startSize=30;container=1;collapsible=1;childLayout=tableLayout;fixedRows=1;rowLines=0;fontStyle=1;align=center;resizeLast=1;fontFamily=Times New Roman;fontSize=15;" vertex="1" parent="1">
          <mxGeometry x="585" y="870" width="240" height="110" as="geometry" />
        </mxCell>
        <mxCell id="BUFZrPtzkMFwAn0xN74M-223" value="" style="shape=partialRectangle;collapsible=0;dropTarget=0;pointerEvents=0;fillColor=none;points=[[0,0.5],[1,0.5]];portConstraint=eastwest;top=0;left=0;right=0;bottom=1;" vertex="1" parent="BUFZrPtzkMFwAn0xN74M-222">
          <mxGeometry y="30" width="240" height="25" as="geometry" />
        </mxCell>
        <mxCell id="BUFZrPtzkMFwAn0xN74M-224" value="PK" style="shape=partialRectangle;overflow=hidden;connectable=0;fillColor=none;top=0;left=0;bottom=0;right=0;fontStyle=1;" vertex="1" parent="BUFZrPtzkMFwAn0xN74M-223">
          <mxGeometry width="30" height="25" as="geometry">
            <mxRectangle width="30" height="25" as="alternateBounds" />
          </mxGeometry>
        </mxCell>
        <mxCell id="BUFZrPtzkMFwAn0xN74M-225" value="Model_ID  NOT NULL  (Int)" style="shape=partialRectangle;overflow=hidden;connectable=0;fillColor=none;top=0;left=0;bottom=0;right=0;align=left;spacingLeft=6;fontStyle=5;fontFamily=Times New Roman;fontSize=14;" vertex="1" parent="BUFZrPtzkMFwAn0xN74M-223">
          <mxGeometry x="30" width="210" height="25" as="geometry">
            <mxRectangle width="210" height="25" as="alternateBounds" />
          </mxGeometry>
        </mxCell>
        <mxCell id="BUFZrPtzkMFwAn0xN74M-226" value="" style="shape=partialRectangle;collapsible=0;dropTarget=0;pointerEvents=0;fillColor=none;points=[[0,0.5],[1,0.5]];portConstraint=eastwest;top=0;left=0;right=0;bottom=0;" vertex="1" parent="BUFZrPtzkMFwAn0xN74M-222">
          <mxGeometry y="55" width="240" height="30" as="geometry" />
        </mxCell>
        <mxCell id="BUFZrPtzkMFwAn0xN74M-227" value="" style="shape=partialRectangle;overflow=hidden;connectable=0;fillColor=none;top=0;left=0;bottom=0;right=0;" vertex="1" parent="BUFZrPtzkMFwAn0xN74M-226">
          <mxGeometry width="30" height="30" as="geometry">
            <mxRectangle width="30" height="30" as="alternateBounds" />
          </mxGeometry>
        </mxCell>
        <mxCell id="BUFZrPtzkMFwAn0xN74M-228" value="" style="shape=partialRectangle;overflow=hidden;connectable=0;fillColor=none;top=0;left=0;bottom=0;right=0;align=left;spacingLeft=6;" vertex="1" parent="BUFZrPtzkMFwAn0xN74M-226">
          <mxGeometry x="30" width="210" height="30" as="geometry">
            <mxRectangle width="210" height="30" as="alternateBounds" />
          </mxGeometry>
        </mxCell>
        <mxCell id="BUFZrPtzkMFwAn0xN74M-229" value="O" style="ellipse;whiteSpace=wrap;html=1;aspect=fixed;rounded=0;sketch=0;strokeColor=default;fontFamily=Times New Roman;fontSize=14;fillColor=default;" vertex="1" parent="1">
          <mxGeometry x="680" y="800" width="40" height="40" as="geometry" />
        </mxCell>
        <mxCell id="BUFZrPtzkMFwAn0xN74M-230" value="" style="endArrow=none;html=1;rounded=0;fontFamily=Times New Roman;fontSize=14;entryX=0;entryY=0;entryDx=0;entryDy=0;exitX=0.5;exitY=1;exitDx=0;exitDy=0;" edge="1" parent="1" source="BUFZrPtzkMFwAn0xN74M-196" target="BUFZrPtzkMFwAn0xN74M-229">
          <mxGeometry width="50" height="50" relative="1" as="geometry">
            <mxPoint x="650" y="560" as="sourcePoint" />
            <mxPoint x="700" y="510" as="targetPoint" />
            <Array as="points" />
          </mxGeometry>
        </mxCell>
        <mxCell id="BUFZrPtzkMFwAn0xN74M-232" value="" style="shape=partialRectangle;whiteSpace=wrap;html=1;left=0;right=0;fillColor=none;rounded=0;sketch=0;strokeColor=default;fontFamily=Times New Roman;fontSize=14;rotation=90;" vertex="1" parent="1">
          <mxGeometry x="685.63" y="510" width="28.75" height="10" as="geometry" />
        </mxCell>
        <mxCell id="BUFZrPtzkMFwAn0xN74M-239" value="" style="shape=partialRectangle;whiteSpace=wrap;html=1;left=0;right=0;fillColor=none;rounded=0;sketch=0;strokeColor=default;fontFamily=Times New Roman;fontSize=14;rotation=90;" vertex="1" parent="1">
          <mxGeometry x="685.63" y="850" width="28.75" height="10" as="geometry" />
        </mxCell>
        <mxCell id="BUFZrPtzkMFwAn0xN74M-240" value="" style="endArrow=none;html=1;rounded=0;fontFamily=Times New Roman;fontSize=14;entryX=1;entryY=0;entryDx=0;entryDy=0;exitX=0.395;exitY=1.049;exitDx=0;exitDy=0;exitPerimeter=0;" edge="1" parent="1" source="BUFZrPtzkMFwAn0xN74M-221" target="BUFZrPtzkMFwAn0xN74M-229">
          <mxGeometry width="50" height="50" relative="1" as="geometry">
            <mxPoint x="560" y="770" as="sourcePoint" />
            <mxPoint x="695.8578643762689" y="815.8578643762692" as="targetPoint" />
            <Array as="points" />
          </mxGeometry>
        </mxCell>
        <mxCell id="BUFZrPtzkMFwAn0xN74M-241" value="Car_Detail &amp;nbsp;(Text)" style="text;html=1;strokeColor=none;fillColor=none;align=left;verticalAlign=middle;whiteSpace=wrap;rounded=0;fontFamily=Times New Roman;fontStyle=1;fontSize=14;" vertex="1" parent="1">
          <mxGeometry x="625" y="930" width="150" height="30" as="geometry" />
        </mxCell>
        <mxCell id="BUFZrPtzkMFwAn0xN74M-242" value="Car_Model. (Varchar &amp;nbsp;50)" style="text;html=1;strokeColor=none;fillColor=none;align=left;verticalAlign=middle;whiteSpace=wrap;rounded=0;fontFamily=Times New Roman;fontStyle=1;fontSize=14;" vertex="1" parent="1">
          <mxGeometry x="625" y="950" width="175" height="30" as="geometry" />
        </mxCell>
        <mxCell id="BUFZrPtzkMFwAn0xN74M-252" value="" style="edgeStyle=entityRelationEdgeStyle;fontSize=12;html=1;endArrow=ERzeroToMany;startArrow=ERmandOne;rounded=0;sketch=1;fontFamily=Times New Roman;exitX=0.5;exitY=1;exitDx=0;exitDy=0;entryX=0.5;entryY=0;entryDx=0;entryDy=0;" edge="1" parent="1" source="BUFZrPtzkMFwAn0xN74M-60" target="BUFZrPtzkMFwAn0xN74M-64">
          <mxGeometry width="100" height="100" relative="1" as="geometry">
            <mxPoint x="890" y="120" as="sourcePoint" />
            <mxPoint x="1010" y="95" as="targetPoint" />
          </mxGeometry>
        </mxCell>
        <mxCell id="BUFZrPtzkMFwAn0xN74M-253" value="" style="edgeStyle=entityRelationEdgeStyle;fontSize=12;html=1;endArrow=ERzeroToOne;startArrow=ERmandOne;rounded=0;sketch=1;fontFamily=Times New Roman;exitX=1;exitY=0.5;exitDx=0;exitDy=0;" edge="1" parent="1" source="BUFZrPtzkMFwAn0xN74M-64">
          <mxGeometry width="100" height="100" relative="1" as="geometry">
            <mxPoint x="825" y="460" as="sourcePoint" />
            <mxPoint x="920" y="395" as="targetPoint" />
          </mxGeometry>
        </mxCell>
        <mxCell id="BUFZrPtzkMFwAn0xN74M-254" value="" style="edgeStyle=entityRelationEdgeStyle;fontSize=12;html=1;endArrow=ERzeroToMany;startArrow=ERmandOne;rounded=0;sketch=1;fontFamily=Times New Roman;exitX=1;exitY=0.5;exitDx=0;exitDy=0;entryX=0;entryY=0.5;entryDx=0;entryDy=0;" edge="1" parent="1" source="BUFZrPtzkMFwAn0xN74M-177" target="BUFZrPtzkMFwAn0xN74M-64">
          <mxGeometry width="100" height="100" relative="1" as="geometry">
            <mxPoint x="495" y="445" as="sourcePoint" />
            <mxPoint x="595" y="345" as="targetPoint" />
          </mxGeometry>
        </mxCell>
        <mxCell id="BUFZrPtzkMFwAn0xN74M-255" value="" style="edgeStyle=entityRelationEdgeStyle;fontSize=12;html=1;endArrow=ERmandOne;startArrow=ERmandOne;rounded=0;sketch=1;fontFamily=Times New Roman;endFill=0;exitX=0.5;exitY=0;exitDx=0;exitDy=0;entryX=0;entryY=0.75;entryDx=0;entryDy=0;" edge="1" parent="1" source="BUFZrPtzkMFwAn0xN74M-183" target="BUFZrPtzkMFwAn0xN74M-173">
          <mxGeometry width="100" height="100" relative="1" as="geometry">
            <mxPoint x="115" y="480" as="sourcePoint" />
            <mxPoint x="240" y="380" as="targetPoint" />
          </mxGeometry>
        </mxCell>
        <mxCell id="BUFZrPtzkMFwAn0xN74M-256" value="" style="edgeStyle=entityRelationEdgeStyle;fontSize=12;html=1;endArrow=ERzeroToOne;startArrow=ERzeroToOne;rounded=0;sketch=1;fontFamily=Times New Roman;endFill=0;exitX=1;exitY=0.5;exitDx=0;exitDy=0;entryX=0.5;entryY=0;entryDx=0;entryDy=0;startFill=0;" edge="1" parent="1" source="BUFZrPtzkMFwAn0xN74M-145" target="BUFZrPtzkMFwAn0xN74M-165">
          <mxGeometry width="100" height="100" relative="1" as="geometry">
            <mxPoint x="1197.5" y="400" as="sourcePoint" />
            <mxPoint x="1282.5" y="310" as="targetPoint" />
          </mxGeometry>
        </mxCell>
        <mxCell id="BUFZrPtzkMFwAn0xN74M-257" value="Rate" style="shape=table;startSize=30;container=1;collapsible=1;childLayout=tableLayout;fixedRows=1;rowLines=0;fontStyle=1;align=center;resizeLast=1;fontFamily=Times New Roman;fontSize=15;" vertex="1" parent="1">
          <mxGeometry x="1120" y="685" width="240" height="125" as="geometry" />
        </mxCell>
        <mxCell id="BUFZrPtzkMFwAn0xN74M-258" value="" style="shape=partialRectangle;collapsible=0;dropTarget=0;pointerEvents=0;fillColor=none;points=[[0,0.5],[1,0.5]];portConstraint=eastwest;top=0;left=0;right=0;bottom=1;" vertex="1" parent="BUFZrPtzkMFwAn0xN74M-257">
          <mxGeometry y="30" width="240" height="25" as="geometry" />
        </mxCell>
        <mxCell id="BUFZrPtzkMFwAn0xN74M-259" value="PK" style="shape=partialRectangle;overflow=hidden;connectable=0;fillColor=none;top=0;left=0;bottom=0;right=0;fontStyle=1;" vertex="1" parent="BUFZrPtzkMFwAn0xN74M-258">
          <mxGeometry width="30" height="25" as="geometry">
            <mxRectangle width="30" height="25" as="alternateBounds" />
          </mxGeometry>
        </mxCell>
        <mxCell id="BUFZrPtzkMFwAn0xN74M-260" value="Rate_ID  NOT NULL  (Int)" style="shape=partialRectangle;overflow=hidden;connectable=0;fillColor=none;top=0;left=0;bottom=0;right=0;align=left;spacingLeft=6;fontStyle=5;fontFamily=Times New Roman;fontSize=14;" vertex="1" parent="BUFZrPtzkMFwAn0xN74M-258">
          <mxGeometry x="30" width="210" height="25" as="geometry">
            <mxRectangle width="210" height="25" as="alternateBounds" />
          </mxGeometry>
        </mxCell>
        <mxCell id="BUFZrPtzkMFwAn0xN74M-261" value="" style="shape=partialRectangle;collapsible=0;dropTarget=0;pointerEvents=0;fillColor=none;points=[[0,0.5],[1,0.5]];portConstraint=eastwest;top=0;left=0;right=0;bottom=0;" vertex="1" parent="BUFZrPtzkMFwAn0xN74M-257">
          <mxGeometry y="55" width="240" height="30" as="geometry" />
        </mxCell>
        <mxCell id="BUFZrPtzkMFwAn0xN74M-262" value="" style="shape=partialRectangle;overflow=hidden;connectable=0;fillColor=none;top=0;left=0;bottom=0;right=0;" vertex="1" parent="BUFZrPtzkMFwAn0xN74M-261">
          <mxGeometry width="30" height="30" as="geometry">
            <mxRectangle width="30" height="30" as="alternateBounds" />
          </mxGeometry>
        </mxCell>
        <mxCell id="BUFZrPtzkMFwAn0xN74M-263" value="" style="shape=partialRectangle;overflow=hidden;connectable=0;fillColor=none;top=0;left=0;bottom=0;right=0;align=left;spacingLeft=6;" vertex="1" parent="BUFZrPtzkMFwAn0xN74M-261">
          <mxGeometry x="30" width="210" height="30" as="geometry">
            <mxRectangle width="210" height="30" as="alternateBounds" />
          </mxGeometry>
        </mxCell>
        <mxCell id="BUFZrPtzkMFwAn0xN74M-264" value="Cart_ID  (Int)&#xa;Model_ID (Int)" style="shape=partialRectangle;overflow=hidden;connectable=0;fillColor=none;top=0;left=0;bottom=0;right=0;align=left;spacingLeft=6;fontStyle=5;fontFamily=Times New Roman;fontSize=14;" vertex="1" parent="1">
          <mxGeometry x="1150" y="740" width="190" height="40" as="geometry">
            <mxRectangle width="220" height="30" as="alternateBounds" />
          </mxGeometry>
        </mxCell>
        <mxCell id="BUFZrPtzkMFwAn0xN74M-265" value="FK " style="shape=partialRectangle;overflow=hidden;connectable=0;fillColor=none;top=0;left=0;bottom=0;right=0;fontStyle=1;" vertex="1" parent="1">
          <mxGeometry x="1120" y="745" width="30" height="30" as="geometry">
            <mxRectangle width="30" height="30" as="alternateBounds" />
          </mxGeometry>
        </mxCell>
        <mxCell id="BUFZrPtzkMFwAn0xN74M-266" value="Rate/Day (Varchar &amp;nbsp;50)" style="text;html=1;strokeColor=none;fillColor=none;align=left;verticalAlign=middle;whiteSpace=wrap;rounded=0;fontFamily=Times New Roman;fontStyle=1;fontSize=14;" vertex="1" parent="1">
          <mxGeometry x="1157.5" y="780" width="175" height="30" as="geometry" />
        </mxCell>
        <mxCell id="BUFZrPtzkMFwAn0xN74M-267" value="" style="edgeStyle=entityRelationEdgeStyle;fontSize=12;html=1;endArrow=ERmandOne;startArrow=ERoneToMany;rounded=0;sketch=1;fontFamily=Times New Roman;endFill=0;exitX=0.25;exitY=1;exitDx=0;exitDy=0;entryX=0;entryY=0.5;entryDx=0;entryDy=0;startFill=0;" edge="1" parent="1" source="BUFZrPtzkMFwAn0xN74M-164" target="BUFZrPtzkMFwAn0xN74M-261">
          <mxGeometry width="100" height="100" relative="1" as="geometry">
            <mxPoint x="1030" y="515" as="sourcePoint" />
            <mxPoint x="1120" y="650" as="targetPoint" />
          </mxGeometry>
        </mxCell>
        <mxCell id="BUFZrPtzkMFwAn0xN74M-268" value="" style="edgeStyle=entityRelationEdgeStyle;fontSize=12;html=1;endArrow=ERzeroToOne;startArrow=ERoneToMany;rounded=0;sketch=1;fontFamily=Times New Roman;endFill=0;exitX=1;exitY=0.5;exitDx=0;exitDy=0;entryX=0.5;entryY=1;entryDx=0;entryDy=0;startFill=0;" edge="1" parent="1" source="BUFZrPtzkMFwAn0xN74M-226" target="BUFZrPtzkMFwAn0xN74M-266">
          <mxGeometry width="100" height="100" relative="1" as="geometry">
            <mxPoint x="1011.25" y="810" as="sourcePoint" />
            <mxPoint x="1118.75" y="1085" as="targetPoint" />
          </mxGeometry>
        </mxCell>
      </root>
    </mxGraphModel>
  </diagram>
</mxfile>
